<mxfile host="app.diagrams.net" modified="2024-05-23T13:28:40.735Z" agent="Mozilla/5.0 (Macintosh; Intel Mac OS X 10_15_7) AppleWebKit/605.1.15 (KHTML, like Gecko) Version/17.5 Safari/605.1.15" version="24.4.6" etag="oVOU5X1QWdD4wnTiME4v" type="github">
  <diagram name="Page-1" id="J8DQ5a8EnkL9CIdJIzC1">
    <mxGraphModel>
      <root>
        <mxCell id="0" />
        <mxCell id="1" parent="0" />
      </root>
    </mxGraphModel>
  </diagram>
</mxfile>
